inDegrees=yes
name=ik_S51_A07_T01
DataType=double
version=3
OpenSimVersion=4.3-2021-08-27-4bc7ad9
endheader
time	pelvis_tilt	pelvis_list	pelvis_rotation	pelvis_tx	pelvis_ty	pelvis_tz	hip_flexion_r	hip_adduction_r	hip_rotation_r	knee_angle_r	knee_angle_r_beta	ankle_angle_r	subtalar_angle_r	mtp_angle_r	hip_flexion_l	hip_adduction_l	hip_rotation_l	knee_angle_l	knee_angle_l_beta	ankle_angle_l	subtalar_angle_l	mtp_angle_l	lumbar_extension	lumbar_bending	lumbar_rotation	arm_flex_r	arm_add_r	arm_rot_r	elbow_flex_r	pro_sup_r	wrist_flex_r	wrist_dev_r	arm_flex_l	arm_add_l	arm_rot_l	elbow_flex_l	pro_sup_l	wrist_flex_l	wrist_dev_l
19.83999999999967	-3.056727551975875	-1.524591591161794	16.06182549808844	0	0.9399999999999999	0	45.67068166845857	-10.03897084537816	-10.13750181533194	53.72560691009721	0.9376887332134134	0	0	0	45.67068166845857	-10.03897084537816	-10.13750181533194	53.72560691009721	0.9376887332134134	0	0	0	-1.610762150660696	1.194417100212204	15.34579464479986	32.33996421000368	-47.7741296723901	-10.17087773246555	126.0650673620068	35.89716005953079	0	0	32.50321766427141	-1.897775453212682	-11.85647832129504	26.95163444597333	125.9708781045004	0	0
19.85999999999967	-3.037951701836983	-1.51091674426089	16.02211979887321	0	0.9399999999999999	0	45.6702495561263	-10.03888332891039	-10.13730359715874	53.72615779890787	0.9376983480369718	0	0	0	45.6702495561263	-10.03888332891039	-10.13730359715874	53.72615779890787	0.9376983480369718	0	0	0	-1.58866122230512	1.200616704372045	15.38200209524401	31.66381533717803	-47.68415110128442	-10.54355089269371	126.3091192730718	36.04034817706824	0	0	32.47501342797221	-1.889675133861006	-11.87974697119141	26.9656241941554	125.9367293230121	0	0
19.87999999999967	-3.024520442367912	-1.496090158802296	16.03600220132082	0	0.9399999999999999	0	45.66965311532682	-10.03878643897835	-10.13706360923175	53.72695114707618	0.9377121945746235	0	0	0	45.66965311532682	-10.03878643897835	-10.13706360923175	53.72695114707618	0.9377121945746235	0	0	0	-1.572596708000513	1.209686384756005	15.38014168080918	31.62485701458503	-47.71828736688656	-10.53353876497018	126.2680396657256	36.06504367250907	0	0	32.44323870736923	-1.847316339309073	-11.89678316627496	26.95794756887303	125.9469287125469	0	0
19.89999999999966	-3.024631690850127	-1.491169732247163	16.01249077231865	0	0.9399999999999999	0	45.66927477793749	-10.03871030358286	-10.1368907198677	53.72743525892918	0.9377206439204062	0	0	0	45.66927477793749	-10.03871030358286	-10.1368907198677	53.72743525892918	0.9377206439204062	0	0	0	-1.57021373571718	1.212134227217059	15.43505565135927	30.61406310765441	-47.5098976023655	-11.1867387297944	126.6077353272392	36.46661452189635	0	0	32.47316443422515	-1.787971034745228	-11.99725142040831	26.94359600820043	125.9701419552884	0	0
19.91999999999966	-3.022233761893812	-1.503615905997654	16.05748804896489	0	0.9399999999999999	0	45.66904222800612	-10.03866368081312	-10.13678469185263	53.72773356103583	0.9377258502743331	0	0	0	45.66904222800612	-10.03866368081312	-10.13678469185263	53.72773356103583	0.9377258502743331	0	0	0	-1.571230807890515	1.198417372499694	15.45034275468671	30.54977330230997	-47.47755794385838	-11.36930602540373	126.5791673439122	36.88273771443166	0	0	32.52492147451825	-1.730374396620733	-12.04975889468275	26.93198259114911	126.0080571431455	0	0
19.93999999999966	-3.03755588718183	-1.534853232929692	16.00067472109918	0	0.9399999999999999	0	45.65990042238177	-10.03742876112462	-10.13351950338281	53.74302854524148	0.9379927981077621	0	0	0	45.65990042238177	-10.03742876112462	-10.13351950338281	53.74302854524148	0.9379927981077621	0	0	0	-1.605277831813424	1.145181978091542	15.58785133513581	26.20531688136204	-45.81973731357407	-14.35581382249874	128.2545660876929	39.60091432077087	0	0	32.61264447952334	-1.700101303825396	-12.08540331005659	26.9534803597507	126.03379421002	0	0
19.95999999999966	-3.063145293665288	-1.574209515969063	15.85519597986811	0	0.9399999999999999	0	45.65943370671342	-10.03733644935579	-10.13330813926227	53.74362459495283	0.9380032011377308	0	0	0	45.65943370671342	-10.03733644935579	-10.13330813926227	53.74362459495283	0.9380032011377308	0	0	0	-1.633620214181388	1.104873124880089	15.7981414076849	24.30031224191266	-45.1340404468725	-16.34158488608081	129.4600073725431	39.9998119453057	0	0	32.70821346647637	-1.664605464947899	-12.16894925498609	26.97435053287518	126.0769880098251	0	0
19.97999999999966	-3.08119828286782	-1.592275563184411	15.88607074141213	0	0.9399999999999999	0	45.65920009365947	-10.03729053466092	-10.13320276715957	53.74392449124681	0.9380084353154752	0	0	0	45.65920009365947	-10.03729053466092	-10.13320276715957	53.74392449124681	0.9380084353154752	0	0	0	-1.657071439146148	1.092997443821217	15.7657658377973	24.36731475421755	-45.01304623161064	-16.52673445265005	129.650136326943	40.04157946361498	0	0	32.74541362671255	-1.66763372071508	-12.35767580664337	27.02302186943199	126.0795558247045	0	0
19.99999999999966	-3.126553673156943	-1.629175709934346	15.59396262944837	0	0.9399999999999999	0	45.65866302745762	-10.03718448823271	-10.13295970250578	53.74460990288577	0.9380203980053066	0	0	0	45.65866302745762	-10.03718448823271	-10.13295970250578	53.74460990288577	0.9380203980053066	0	0	0	-1.694001563092805	1.070444362346924	16.08023317053469	20.35282472925317	-43.3784678637848	-19.65357118610415	132.0653302809731	41.60014544821078	0	0	32.79663706179813	-1.666914369738602	-12.51299374783766	27.10177809432284	126.1016290085381	0	0
20.01999999999966	-3.218439479211573	-1.650153331179811	15.17818746479869	0	0.9399999999999999	0	45.65760623699032	-10.03697787845206	-10.13248401719259	53.74596360888854	0.9380440246321589	0	0	0	45.65760623699032	-10.03697787845206	-10.13248401719259	53.74596360888854	0.9380440246321589	0	0	0	-1.765669662276559	1.055644560573992	16.50622985459679	18.20652878149171	-41.71351634492286	-21.27212729776408	133.7824083446361	46.79331623825324	0	0	32.85600174990332	-1.608243748936404	-12.74719320775451	27.21178382185643	126.2012652678423	0	0
20.03999999999966	-3.299037125791363	-1.693080697498397	15.12861433251717	0	0.9399999999999999	0	45.65742777720681	-10.0369438425736	-10.13240502154889	53.74619793913112	0.938048114466429	0	0	0	45.65742777720681	-10.0369438425736	-10.13240502154889	53.74619793913112	0.938048114466429	0	0	0	-1.85311007524939	1.032080841885102	16.57269645735246	18.38237849244409	-41.71296449257234	-21.3925224822047	134.1121097470389	47.45273410618055	0	0	32.97208430575665	-1.59230666988438	-12.70635814738946	27.31876974917868	126.0844140696707	0	0
